<svg id="Layer_2" data-name="Layer 2" xmlns="http://www.w3.org/2000/svg" viewBox="0 0 64.4 102.39"><defs><style>.cls-1{fill:none;stroke:#ffffff;stroke-miterlimit:10;stroke-width:6px;}.cls-2{fill:#ffffff;}</style></defs><title>lightsoff</title><path class="cls-1" d="M412.77,585.71a29.47,29.47,0,0,0-28,29.08,29.1,29.1,0,0,0,6.76,18.74c6.32,7.59,5.28,11.51,6.54,24,0.25,2.52,1,7.19,5.72,8.32,5,1.17,15.36,1,20.36,0,4.85-1,5.48-5.79,5.72-8.32,1.16-12.21.27-16.11,7-24.49A29.19,29.19,0,0,0,412.77,585.71Z" transform="translate(-381.75 -582.69)"/><path class="cls-2" d="M422.34,672H405.55a2.55,2.55,0,0,0,0,5.09h16.79A2.55,2.55,0,0,0,422.34,672Z" transform="translate(-381.75 -582.69)"/><path class="cls-2" d="M419.34,680H408.55a2.55,2.55,0,1,0,0,5.09h10.79A2.55,2.55,0,1,0,419.34,680Z" transform="translate(-381.75 -582.69)"/></svg>